<?xml version="1.0" standalone="no"?>
<!DOCTYPE svg PUBLIC "-//W3C//DTD SVG 20010904//EN"
 "http://www.w3.org/TR/2001/REC-SVG-20010904/DTD/svg10.dtd">
<svg version="1.0" xmlns="http://www.w3.org/2000/svg"
 width="512.000000pt" height="512.000000pt" viewBox="0 0 512.000000 512.000000"
 preserveAspectRatio="xMidYMid meet">

<g transform="translate(0.000000,512.000000) scale(0.100000,-0.100000)"
fill="#f38bae" stroke="none">
<path d="M4525 5107 c-17 -8 -167 -154 -333 -324 l-303 -310 -67 15 c-48 11
-121 16 -262 16 -209 0 -303 -13 -478 -69 l-77 -24 -35 32 c-356 332 -636 575
-675 586 -62 17 -131 -9 -164 -63 -27 -43 -27 -58 0 -666 26 -565 22 -686 -36
-1013 -47 -271 -64 -428 -72 -657 l-6 -195 -104 -17 c-379 -62 -766 -295
-1045 -627 -311 -372 -532 -897 -638 -1522 -21 -121 -21 -123 -2 -148 21 -29
42 -36 78 -27 34 9 42 30 75 204 112 600 306 1055 598 1403 213 254 485 441
776 532 104 33 223 57 277 57 52 0 114 16 125 33 4 7 9 113 9 237 2 245 17
401 65 675 67 383 69 469 38 1168 -12 262 -19 480 -16 483 7 7 240 -197 520
-453 133 -123 195 -173 211 -173 14 0 71 16 128 35 157 52 267 69 453 68 126
0 181 -4 259 -21 55 -12 102 -22 105 -22 3 -1 153 149 333 332 l327 333 -2
-605 -2 -605 24 -89 c12 -49 45 -139 71 -200 64 -150 80 -227 80 -378 0 -138
-18 -232 -74 -407 -70 -215 -77 -375 -26 -621 56 -276 70 -390 77 -635 7 -256
-3 -395 -43 -595 -47 -238 -104 -403 -216 -628 -79 -158 -81 -180 -25 -212 56
-31 97 19 202 250 243 532 294 1160 148 1820 -24 109 -27 145 -26 280 1 144 3
162 32 255 129 413 131 630 7 912 -97 223 -99 237 -90 913 8 625 9 603 -55
649 -38 27 -107 35 -146 18z"/>
<path d="M3019 3627 c-88 -25 -175 -110 -199 -196 -25 -91 -1 -151 59 -151 35
0 71 40 71 77 0 37 37 97 73 118 45 27 115 25 155 -4 37 -26 56 -60 66 -114 9
-47 37 -77 74 -77 44 0 67 33 65 91 -8 174 -193 304 -364 256z"/>
<path d="M4003 3622 c-117 -42 -191 -137 -196 -252 -2 -57 21 -90 65 -90 37 0
65 30 74 77 10 54 29 88 66 114 40 29 110 31 155 4 36 -21 73 -81 73 -118 0
-65 77 -100 121 -56 19 19 21 30 16 78 -16 180 -205 303 -374 243z"/>
<path d="M3074 2948 c-34 -16 -44 -50 -34 -114 19 -115 93 -213 198 -262 48
-23 70 -27 142 -26 72 0 94 5 143 28 32 15 73 43 91 62 18 19 36 34 40 34 4 0
22 -15 41 -34 18 -19 60 -46 92 -62 49 -23 71 -28 143 -28 103 -1 171 26 240
96 76 75 122 202 98 269 -12 36 -56 54 -91 38 -29 -13 -34 -23 -48 -94 -27
-143 -178 -215 -301 -142 -54 32 -84 76 -97 143 -14 70 -19 81 -50 94 -21 8
-34 8 -54 -1 -29 -13 -34 -23 -48 -94 -27 -143 -178 -215 -301 -142 -56 32
-85 76 -98 148 -7 37 -18 61 -36 77 -28 24 -38 26 -70 10z"/>
</g>
</svg>
